# xmcd
#
# Track frame offsets: 
#        183
#        10503
#        23453
#        36773
#        51645
#        63863
#        77663
#        90020
#        107155
#        117715
#        133863
#        147495
#        157845
#        171078
#
# Disc length: 2397 seconds
#
# Revision: 0
# Processed by: cddbd v1.5.1PL0 Copyright (c) Steve Scherf et al.
# Submitted via: ExactAudioCopy v0.95a5
#
DISCID=ac095b0e
DTITLE=Lewis Niderman Band - A Country song
DYEAR=1900
DGENRE=Country
TTITLE0=My Baby큦 gone
TTITLE1=The hotel lobby song
TTITLE2=A country song so echt und laut
TTITLE3=Honky tonkin큈hats my life
TTITLE4=The time i cried
TTITLE5=Bad Ischl wenn i stirb
TTITLE6=Cajun Stripper
TTITLE7=Yes I Love you so much
TTITLE8=Du hast es g큦chafft
TTITLE9=Cajun Born
TTITLE10=Good morning John
TTITLE11=The way love is
TTITLE12=It큦 good to have a family
TTITLE13=Bessyl큦 two step
EXTD=
EXTT0=
EXTT1=
EXTT2=
EXTT3=
EXTT4=
EXTT5=
EXTT6=
EXTT7=
EXTT8=
EXTT9=
EXTT10=
EXTT11=
EXTT12=
EXTT13=
PLAYORDER=
